PathFileType	4	(X/Y/Z)	Trial60_Left_Ankle_markers_cropped.trc
DataRate	CameraRate	NumFrames	NumMarkers	Units	OrigDataRate	OrigDataStartFrame	OrigNumFrames																																																																																													
200	200	6	27	m	200	50	101
Frame#	Time	R_ASIS			L_ASIS			Sacral			L_Thigh_Superior			L_Thigh_Inferior			L_Thigh_Lateral			L_Shank_Superior			L_Shank_Inferior			L_Shank_Lateral			L_Heel			L_Midfoot_Superior			L_Midfoot_Lateral			L_Toe			R_Thigh_Superior			R_Thigh_Inferior			R_Thigh_Lateral			R_Shank_Superior			R_Shank_Lateral			R_Shank_Inferior			R_Heel			R_Midfoot_Superior			R_Midfoot_Lateral			R_Toe
		X1	Y1	Z1	X2	Y2	Z2	X3	Y3	Z3	X4	Y4	Z4	X5	Y5	Z5	X6	Y6	Z6	X7	Y7	Z7	X8	Y8	Z8	X9	Y9	Z9	X10	Y10	Z10	X11	Y11	Z11	X12	Y12	Z12	X13	Y13	Z13	X14	Y14	Z14	X15	Y15	Z15	X16	Y16	Z16	X17	Y17	Z17	X18	Y18	Z18	X19	Y19	Z19	X20	Y20	Z20	X21	Y21	Z21	X22	Y22	Z22	X23	Y23	Z23

51	   0.250	   -0.59001331817465	    0.93323513920134	   -0.38088739005342	   -0.55329176765727	    0.95297182839780	   -0.65645801680322	   -0.79423873669251	    0.97685446968931	   -0.55027469567836	   -0.44878934987600	    0.80373093780415	   -0.62391499411780	   -0.35212180578366	    0.64203385377865	   -0.63793710945977	   -0.45570765247242	    0.69149641534523	   -0.72072421687101	   -0.30194512223177	    0.51598115543189	   -0.66134729714409	   -0.22153624967599	    0.30454844232151	   -0.68039278940704	   -0.31677635330366	    0.38622428928424	   -0.74361291324726	   -0.27827636297765	    0.12513003856469	   -0.70261201164003	   -0.12228033135821	    0.20268697847929	   -0.66246447360133	   -0.16975029195577	    0.12748393635406	   -0.72225528808994	   -0.00199344410078	    0.16325788166142	   -0.59887236469835	   -0.53913455476108	    0.73182408308118	   -0.42645085007645	   -0.54269699162509	    0.56723619904817	   -0.46744845518157	   -0.63096811038847	    0.61117611224722	   -0.39578222398203	   -0.57856561440772	    0.38808699565556	   -0.48145798332380	   -0.61993994626215	    0.19386223268673	   -0.51086796106380	   -0.66376891001074	    0.28237889379295	   -0.44058052989009	   -0.75928660547506	    0.03661084184995	   -0.56833822620308	   -0.58986898814971	    0.08871893877183	   -0.51730930357896	   -0.68251946323865	    0.02958148461201	   -0.48821355822719	   -0.47298484803584	    0.03234913315391	   -0.48168218243717
52	   0.255	   -0.58972586044644	    0.93333022011005	   -0.38153300338425	   -0.55318437626307	    0.95289963370682	   -0.65709861389013	   -0.79402832315761	    0.97678259180752	   -0.55079452931176	   -0.44841743873595	    0.80333382027229	   -0.62472551941952	   -0.35201588665840	    0.64140481320196	   -0.63814692243151	   -0.45531004820778	    0.69089222671975	   -0.72114203943243	   -0.30199264372727	    0.51571788577166	   -0.66132229186855	   -0.22172817322943	    0.30422838637240	   -0.68007100760930	   -0.31683488690082	    0.38588645225316	   -0.74347595565171	   -0.27948341260202	    0.12595479854216	   -0.70200890996246	   -0.12225726527111	    0.20104095903188	   -0.66189671250745	   -0.17090070852082	    0.12667447814709	   -0.72172100526137	   -0.00254279332348	    0.15985894846380	   -0.59853738625355	   -0.53890760661308	    0.73186093788970	   -0.42703183067987	   -0.54257597693697	    0.56725005640928	   -0.46796531394779	   -0.63075049659793	    0.61124287687553	   -0.39622948414512	   -0.57848303906380	    0.38807836229880	   -0.48183566879621	   -0.61987396768270	    0.19382260822829	   -0.51105959189258	   -0.66366828691389	    0.28241460741937	   -0.44100228733012	   -0.75929063891522	    0.03659918216037	   -0.56834871484117	   -0.58989082250241	    0.08872056980957	   -0.51733359927233	   -0.68253471307425	    0.02958883644454	   -0.48821167994070	   -0.47300090656258	    0.03235875339898	   -0.48165854008374
53	   0.260	   -0.58942865346049	    0.93341632608457	   -0.38217300590153	   -0.55308197398208	    0.95280988161145	   -0.65773843894451	   -0.79381309274628	    0.97669974351719	   -0.55129788049082	   -0.44814822226159	    0.80295173160442	   -0.62552344137400	   -0.35194137910621	    0.64082006686205	   -0.63839604456895	   -0.45487380677193	    0.69031945991846	   -0.72156743404766	   -0.30209149209504	    0.51542746630120	   -0.66136769678421	   -0.22201027281096	    0.30387866373489	   -0.67984069877129	   -0.31702826104533	    0.38550768851481	   -0.74337599971415	   -0.28090366839278	    0.12684502128613	   -0.70128845904128	   -0.12229020368817	    0.19926526711759	   -0.66164246411838	   -0.17234749480001	    0.12584128869055	   -0.72138509152666	   -0.00305825980277	    0.15615112938817	   -0.59891070954010	   -0.53866656366923	    0.73189717813269	   -0.42760299788347	   -0.54243730923909	    0.56726086936094	   -0.46846246474278	   -0.63051293648793	    0.61130242529964	   -0.39666026227700	   -0.57837919077075	    0.38806360176594	   -0.48220839986724	   -0.61980151385563	    0.19378463218233	   -0.51124565679034	   -0.66354965866171	    0.28244558898703	   -0.44140618828874	   -0.75929099869294	    0.03658880566560	   -0.56835963446383	   -0.58990913191468	    0.08872065562106	   -0.51736001031477	   -0.68254511890067	    0.02959555045741	   -0.48821054760004	   -0.47301189096078	    0.03236544819010	   -0.48163255704638
54	   0.265	   -0.58912502958281	    0.93349284129042	   -0.38280700553942	   -0.55298662256329	    0.95270211253447	   -0.65837563657511	   -0.79359833978786	    0.97660777077665	   -0.55178605228992	   -0.44797751598096	    0.80258799622341	   -0.62629660940370	   -0.35188869837040	    0.64028658687786	   -0.63866583540959	   -0.45439955772388	    0.68978342884815	   -0.72198725093269	   -0.30222819045149	    0.51510946102916	   -0.66147147806440	   -0.22238396514260	    0.30348988832861	   -0.67969402199200	   -0.31735059645821	    0.38509062340284	   -0.74330163952174	   -0.28252670043331	    0.12777600392610	   -0.70043398102773	   -0.12240375333735	    0.19737178485675	   -0.66172296216956	   -0.17410430461888	    0.12500033540917	   -0.72125881553298	   -0.00355606525018	    0.15215997038642	   -0.60004729411610	   -0.53841670816361	    0.73193337561746	   -0.42816140184617	   -0.54228342686255	    0.56726863943087	   -0.46894101384107	   -0.63025902969146	    0.61135593524249	   -0.39707333393234	   -0.57825529912450	    0.38804167897634	   -0.48257368326718	   -0.61972583990519	    0.19374918059256	   -0.51142300795946	   -0.66341719448520	    0.28247371007000	   -0.44177917465638	   -0.75928920464722	    0.03657981354560	   -0.56837087509816	   -0.58992430574458	    0.08871905127971	   -0.51738805593867	   -0.68255175350120	    0.02960188245012	   -0.48821008299488	   -0.47301779592194	    0.03236660235041	   -0.48160692780365
55	   0.270	   -0.58881846821776	    0.93356081358869	   -0.38343438798412	   -0.55289597162744	    0.95257640507588	   -0.65900711512880	   -0.79338788667662	    0.97650901422929	   -0.55226185521028	   -0.44789162209756	    0.80224290339312	   -0.62703148223537	   -0.35184740437607	    0.63980520592214	   -0.63893882925809	   -0.45389382918644	    0.68928344765160	   -0.72238759178810	   -0.30239011476436	    0.51476286333193	   -0.66162046423100	   -0.22284805999735	    0.30305190025184	   -0.67962094931814	   -0.31779371432862	    0.38463639233266	   -0.74323948467936	   -0.28433121909618	    0.12872403574249	   -0.69942030318234	   -0.12262006553771	    0.19536726483092	   -0.66215800893511	   -0.17618293286952	    0.12416826229506	   -0.72135111310676	   -0.00404815822217	    0.14790998632769	   -0.60200976543873	   -0.53816422083152	    0.73196966951969	   -0.42870250904457	   -0.54211799241033	    0.56727338136542	   -0.46940041847676	   -0.62999513947360	    0.61140510073771	   -0.39746711150350	   -0.57811454256941	    0.38801136546314	   -0.48292751693315	   -0.61965033902249	    0.19371708382819	   -0.51158839003430	   -0.66327673009669	    0.28250054910853	   -0.44211193843298	   -0.75928645145170	    0.03657215664545	   -0.56838217448555	   -0.58993654782090	    0.08871554294868	   -0.51741718757106	   -0.68255571915682	    0.02960806093506	   -0.48821012516125	   -0.47301907779224	    0.03236112631691	   -0.48158357457435
56	   0.275	   -0.58851381149318	    0.93362318692690	   -0.38405216908544	   -0.55280291057885	    0.95243392166216	   -0.65962951566826	   -0.79318355856433	    0.97640575082809	   -0.55272888523842	   -0.44787346813462	    0.80191303694567	   -0.62771408411976	   -0.35180745058044	    0.63937222843859	   -0.63920116159435	   -0.45336938599140	    0.68881425091282	   -0.72275643159813	   -0.30256581514489	    0.51438703425561	   -0.66180256923242	   -0.22339783386635	    0.30255588362272	   -0.67961123954606	   -0.31834705752952	    0.38414566208948	   -0.74317671702525	   -0.28628887055558	    0.12967304097842	   -0.69821981848125	   -0.12295390680065	    0.19325437262799	   -0.66296315303157	   -0.17859104862905	    0.12336002174775	   -0.72166578980604	   -0.00454341719173	    0.14341822279278	   -0.60485372936237	   -0.53791481154990	    0.73200557812850	   -0.42922108158380	   -0.54194446426735	    0.56727569875464	   -0.46983646755131	   -0.62972939535984	    0.61145198593597	   -0.39783980391383	   -0.57796179988897	    0.38797213633677	   -0.48326485273197	   -0.61957795671321	    0.19368903242619	   -0.51173866814376	   -0.66313486994315	    0.28252736481611	   -0.44239931334601	   -0.75928351885485	    0.03656567480584	   -0.56839307533370	   -0.58994599568011	    0.08871011533800	   -0.51744653022488	   -0.68255794635076	    0.02961414426413	   -0.48821055704111	   -0.47301695086908	    0.03235012681793	   -0.48156322147822
